<?xml version="1.0" encoding="UTF-8"?>
<svg width="100px" height="100px" viewBox="0 0 276 276" version="1.1" xmlns="http://www.w3.org/2000/svg" xmlns:xlink="http://www.w3.org/1999/xlink">
    <!-- Generator: Sketch 59.1 (86144) - https://sketch.com -->
    <title>Group 2</title>
    <desc>Created with Sketch.</desc>
    <g id="Page-1" stroke="none" stroke-width="1" fill="none" fill-rule="evenodd">
        <g id="A4" transform="translate(-111.000000, -11.000000)">
            <g id="Group-2" transform="translate(111.000000, 11.000000)">
                <circle id="Oval" stroke="#c70a0a" stroke-width="15" cx="138" cy="138" r="130.5"></circle>
                <g id="Group-15" transform="translate(65.000000, 33.000000)">
                    <path d="M71.0917136,98.6778655 C71.0917136,98.6778655 0,117.640776 0,89.8831974 C0,89.8831974 1.70950772,74.5504475 35.5458568,82.0803719 L108.337985,83.9041093 C108.337985,83.9041093 161.265766,75.4755078 141.63288,92.7911185 C141.63288,92.7911185 117.383992,113.243854 71.0917136,98.6778655" id="Fill-1" fill="#c70a0a"></path>
                    <path d="M71.0917136,98.6778655 C71.0917136,98.6778655 0,117.640776 0,89.8831974 C0,89.8831974 1.70950772,74.5504475 35.5458568,82.0803719 L108.337985,83.9041093 C108.337985,83.9041093 161.265766,75.4755078 141.63288,92.7911185 C141.63288,92.7911185 117.383992,113.243854 71.0917136,98.6778655 Z" id="Stroke-3" stroke="#c70a0a"></path>
                    <path d="M26,93.4312029 C26,93.4312029 60.8477116,90.6967007 71,99" id="Stroke-5" stroke="#c70a0a"></path>
                    <path d="M124,93.2079023 C124,93.2079023 102.604208,96.0377026 69,91" id="Stroke-7" stroke="#c70a0a"></path>
                    <path d="M20,9.9677004 C20,9.9677004 56.4958641,-8.87733201 124,5.25623445 L105.889134,93.9377129 C105.889134,93.9377129 84.7595165,95.6004854 32.6224502,81.7437706 L20,9.9677004 Z" id="Fill-9" stroke="#c70a0a" fill="#c70a0a"></path>
                    <path d="M20,9.9677004 C20,9.9677004 56.4958641,-8.87733201 124,5.25623445 L105.889134,93.9377129 C105.889134,93.9377129 84.7595165,95.6004854 32.6224502,81.7437706 L20,9.9677004 Z" id="Stroke-11" stroke="#c70a0a"></path>
                    <path d="M31,64.2694529 C31,64.2694529 44.778042,50.1181253 112,64.3372026 L105.89018,93.8986643 C105.89018,93.8986643 86.0014979,95.9135912 34.0823727,81.9738769 L31,64.2694529 Z" id="Fill-13" fill-opacity="0.8" fill="#ebc804"></path>
                </g>
                <g id="Group" transform="translate(162.000000, 174.000000)" fill="#c70a0a" stroke="#c70a0a">
                    <path d="M1.06666667,21 C1.06666667,21 0.506666667,20.8956807 0.48,20.6348824 L0,11.2722237 C0.426666667,10.6463078 0.986666667,10.0638583 1.68,9.52487519 C1.68,9.52487519 2.58666667,8.81498224 2.61333333,7.7224982 C2.64,6.63001416 2.77333333,0.240456024 2.77333333,0.240456024 C2.77333333,0.240456024 3.33333333,0 4,0 L4.15174632,0.00404955526 C4.7495069,0.0355704178 5.22666667,0.240456024 5.22666667,0.240456024 C5.22666667,0.240456024 5.36,6.63001416 5.38666667,7.7224982 C5.41333333,8.81498224 6.32,9.52487519 6.32,9.52487519 C7.01333333,10.0638583 7.57333333,10.6463078 8,11.2722237 L8,11.2722237 L7.52,20.6348824 C7.49333333,20.8956807 6.93333333,21 6.93333333,21 L6.93333333,21 L1.06666667,21 Z" id="Combined-Shape"></path>
                </g>
                <path d="M77.03,176.5 C77.03,165.225 63.995,165.5 63.995,165.5 L51.455,165.5 C51.125,165.5 50.905,165.72 50.905,165.94 L50.905,203.56 C50.905,203.78 51.125,204 51.455,204 L64.1817977,203.99914 C67.0356429,203.972892 77.3393711,203.280188 77.5758614,193.137656 L77.580157,192.616911 C77.5620855,191.648723 77.1995082,186.634426 71.695,184.75 C74.61,183.54 77.03,181.01 77.03,176.5 Z M58.22,181.175 L58.22,172.37497 L64.142056,172.37765 C65.032047,172.407622 69.66,172.764231 69.66,176.94 C69.66,180.915714 64.6674386,181.159125 64.0561045,181.174028 L58.22,181.175 Z M63.995,196.96 L58.22,196.96 L58.22,188.38 L64.3770582,188.375413 C65.7296244,188.391905 70.21,188.739057 70.21,192.615 C70.21,196.3 66.415,196.96 63.995,196.96 Z M103.65,203.725 C103.705,203.89 103.925,204 104.09,204 L110.91,204 C111.262917,204 111.477187,203.768924 111.383356,203.476227 L96.335,164.675 C96.17,164.29 95.51,164.29 95.345,164.675 L80.33,203.395 C80.165,203.725 80.385,204 80.825,204 L87.59,204 C87.81,204 88.03,203.89 88.085,203.725 L89.57,199.655 L102.055,199.655 L103.65,203.725 Z M95.84,181.615 L99.69,193.165 L91.935,193.165 L95.84,181.615 Z M133.955,203.725 C134.01,203.835 134.285,204 134.45,204 L141.325,204 C141.71,204 141.93,203.725 141.765,203.395 C139.345,198.005 136.76,192.725 134.34,187.28 C138.19,185.905 141.435,182.825 141.435,176.94 C141.435,165.61 130.6,165.5 128.4,165.5 L115.97,165.5 C115.695,165.5 115.475,165.72 115.475,165.94 L115.475,203.56 C115.475,203.78 115.695,204 115.97,204 L122.24,204 C122.57,204 122.79,203.78 122.79,203.56 L122.79,188.435 L126.915,188.435 L133.955,203.725 Z M122.79,181.395 L122.79,172.485 L128.557929,172.486358 C129.920048,172.509648 134.12,172.877857 134.12,176.94 C134.12,181.088571 130.161649,181.384348 128.500758,181.394693 L122.79,181.395 Z M166.13,164.95 C153.315,164.95 147.045,174.85 147.045,184.695 C147.045,194.54 153.315,204.495 166.13,204.495 C178.725,204.495 185.105,194.54 185.105,184.695 C185.105,174.85 178.725,164.95 166.13,164.95 Z M166.13,197.565 C158.375,197.565 154.525,191.185 154.525,184.805 C154.525,178.37 158.375,171.935 166.13,171.935 C173.775,171.935 177.68,178.37 177.68,184.805 C177.68,191.185 173.775,197.565 166.13,197.565 Z M224.485,165.885 L224.485,203.56 C224.485,203.78 224.265,204 223.935,204 L217.665,204 C217.555,204 217.28,203.945 217.225,203.835 L199.625,178.205 L199.625,203.56 C199.625,203.78 199.405,204 199.13,204 L192.86,204 C192.53,204 192.365,203.78 192.365,203.56 L192.365,165.885 C192.365,165.665 192.53,165.445 192.86,165.445 L199.185,165.445 C199.295,165.445 199.515,165.5 199.57,165.61 L217.225,191.46 L217.225,165.885 C217.225,165.665 217.445,165.445 217.775,165.445 L223.935,165.445 C224.265,165.445 224.485,165.665 224.485,165.885 Z" id="Baron" fill="#242524" fill-rule="nonzero"></path>
                <path d="M121.548762,215.66789 C126.292799,210.020988 132.488649,209.722255 136.000881,210.119932 C139.512536,209.722312 145.707655,210.021528 150.451238,215.66789 C150.451238,215.66789 173.659622,237.162007 180.505255,227.833995 C180.505255,227.833995 184.512427,220.843106 176.664946,218.839779 C176.664946,218.839779 189.688424,217.337311 183.17674,234.532605 C183.17674,234.532605 180.00433,245.717916 154.625496,240.709541 C154.625496,240.709541 141.97827,236.306181 135.999671,234.834804 C130.023155,236.305685 117.374504,240.709541 117.374504,240.709541 C91.9956697,245.717916 88.8232597,234.532605 88.8232597,234.532605 C82.3115765,217.337311 95.3350544,218.839779 95.3350544,218.839779 C87.4875727,220.843106 91.4947452,227.833995 91.4947452,227.833995 C98.3403781,237.162007 121.548762,215.66789 121.548762,215.66789 Z" id="Combined-Shape-Copy-3" fill="#242524"></path>
                <path d="M95.096,159.958 L95.096,144.8 L92.054,144.8 L92.054,163 L101.83,163 L101.83,159.958 L95.096,159.958 Z M105.158,163 L108.2,163 L108.2,144.8 L105.158,144.8 L105.158,163 Z M130.196,161.362 L128.246,159.412 C129.312,157.93 129.91,155.85 129.91,153.9 C129.91,148.882 126.218,144.54 120.81,144.54 C115.168,144.54 111.71,148.882 111.71,153.9 C111.71,158.944 115.324,163.26 120.81,163.26 C122.786,163.26 124.632,162.636 126.114,161.57 L128.064,163.494 L130.196,161.362 Z M120.81,160.244 C117.144,160.244 114.752,157.254 114.752,153.9 C114.752,150.546 116.988,147.582 120.81,147.582 C124.788,147.582 126.894,150.546 126.894,153.9 C126.894,155.018 126.582,156.318 126.062,157.202 L124.138,155.278 L121.98,157.436 L123.93,159.36 C123.02,159.906 121.798,160.244 120.81,160.244 Z M140.674,163.26 C144.548,163.26 147.512,161.05 147.512,157.176 L147.512,144.8 L144.47,144.8 L144.47,157.176 C144.47,159.204 142.572,160.218 140.674,160.218 C138.75,160.218 137.06,159.282 136.904,157.176 L136.904,144.8 L133.862,144.8 L133.862,157.176 C133.862,160.92 136.93,163.26 140.674,163.26 Z M159.888,144.566 C147.902,144.566 147.876,163.234 159.888,163.234 C171.848,163.234 171.822,144.566 159.888,144.566 Z M159.888,160.296 C152.01,160.296 152.036,147.53 159.888,147.53 C167.766,147.53 167.766,160.296 159.888,160.296 Z M181.312,163 L184.666,163 L180.948,154.94 L181.267389,154.815241 C182.819757,154.16744 184.458,152.852452 184.458,150.104 C184.458,144.8 178.374,144.8 178.374,144.8 L172.316,144.8 L172.316,163 L175.358,163 L175.358,155.408 L177.828,155.408 L181.312,163 Z M175.358,152.392 L175.358,147.842 L178.449196,147.843864 C178.917639,147.861881 181.416,148.054062 181.416,150.104 C181.416,152.392 178.374,152.392 178.374,152.392 L175.358,152.392 Z" id="Liquor" fill="#242524" fill-rule="nonzero"></path>
            </g>
        </g>
    </g>
</svg>